<?xml version="1.0" encoding="UTF-8" standalone="no"?>
<svg
   id="Layer_1"
   data-name="Layer 1"
   viewBox="0 0 560.17 330.15"
   version="1.1"
   sodipodi:docname="banner.svg"
   inkscape:version="1.3.2 (091e20e, 2023-11-25)"
   xmlns:inkscape="http://www.inkscape.org/namespaces/inkscape"
   xmlns:sodipodi="http://sodipodi.sourceforge.net/DTD/sodipodi-0.dtd"
   xmlns="http://www.w3.org/2000/svg"
   xmlns:svg="http://www.w3.org/2000/svg">
  <sodipodi:namedview
     id="namedview18"
     pagecolor="#ffffff"
     bordercolor="#666666"
     borderopacity="1.0"
     inkscape:showpageshadow="2"
     inkscape:pageopacity="0.0"
     inkscape:pagecheckerboard="0"
     inkscape:deskcolor="#d1d1d1"
     inkscape:zoom="3.8840774"
     inkscape:cx="280.24673"
     inkscape:cy="164.90403"
     inkscape:window-width="2864"
     inkscape:window-height="1584"
     inkscape:window-x="1"
     inkscape:window-y="26"
     inkscape:window-maximized="0"
     inkscape:current-layer="Layer_1" />
  <defs
     id="defs1">
    <style
       id="style1">
      .cls-1 {
        fill: #fff;
        font-family: Roboto-Bold, Roboto;
        font-size: 48px;
      }

      .cls-2 {
        fill: #c94a95;
      }

      .cls-3 {
        fill: #1a2735;
      }

      .cls-4 {
        letter-spacing: -.01em;
      }
    </style>
  </defs>
  <rect
     class="cls-3"
     width="560.17"
     height="330.15"
     id="rect1" />
  <path
     style="font-size:48px;font-family:Rubik;-inkscape-font-specification:Rubik;fill:#ffffff"
     d="m 96.550988,246.75 q -0.528,0 -0.816,-0.288 -0.288,-0.336 -0.288,-0.816 v -31.392 q 0,-0.48 0.288,-0.768 0.288,-0.336 0.816,-0.336 h 2.544 q 0.48,0 0.768,0.336 0.288002,0.288 0.288002,0.768 v 28.32 h 15.984 q 0.528,0 0.816,0.336 0.288,0.288 0.288,0.816 v 1.92 q 0,0.48 -0.288,0.816 -0.288,0.288 -0.816,0.288 z m 35.012972,0.48 q -3.648,0 -6.096,-1.392 -2.448,-1.392 -3.744,-3.84 -1.296,-2.496 -1.44,-5.664 -0.048,-0.816 -0.048,-2.064 0,-1.296 0.048,-2.064 0.144,-3.216 1.44,-5.664 1.344,-2.448 3.792,-3.84 2.448,-1.392 6.048,-1.392 3.6,0 6.048,1.392 2.448,1.392 3.744,3.84 1.344,2.448 1.488,5.664 0.048,0.768 0.048,2.064 0,1.248 -0.048,2.064 -0.144,3.168 -1.44,5.664 -1.296,2.448 -3.744,3.84 -2.448,1.392 -6.096,1.392 z m 0,-3.696 q 2.976,0 4.752,-1.872 1.776,-1.92 1.92,-5.568 0.048,-0.72 0.048,-1.824 0,-1.104 -0.048,-1.824 -0.144,-3.648 -1.92,-5.52 -1.776,-1.92 -4.752,-1.92 -2.976,0 -4.8,1.92 -1.776,1.872 -1.872,5.52 -0.048,0.72 -0.048,1.824 0,1.104 0.048,1.824 0.096,3.648 1.872,5.568 1.824,1.872 4.8,1.872 z m 18.43197,3.216 q -0.48,0 -0.816,-0.288 -0.288,-0.336 -0.288,-0.816 v -22.752 q 0,-0.48 0.288,-0.768 0.336,-0.336 0.816,-0.336 h 2.256 q 0.48,0 0.768,0.336 0.336,0.288 0.336,0.768 v 2.112 q 1.248,-1.632 3.12,-2.64 1.92,-1.056 4.896,-1.056 3.12,0 5.28,1.392 2.208,1.344 3.312,3.792 1.104,2.4 1.104,5.616 v 13.536 q 0,0.48 -0.288,0.816 -0.288,0.288 -0.768,0.288 h -2.4 q -0.48,0 -0.816,-0.288 -0.288,-0.336 -0.288,-0.816 V 232.35 q 0,-3.36 -1.632,-5.232 -1.632,-1.92 -4.8,-1.92 -2.976,0 -4.8,1.92 -1.776,1.872 -1.776,5.232 v 13.296 q 0,0.48 -0.336,0.816 -0.288,0.288 -0.768,0.288 z m 37.10404,0.48 q -2.64,0 -4.56,-0.912 -1.92,-0.96 -3.168,-2.544 -1.2,-1.632 -1.824,-3.696 -0.576,-2.064 -0.672,-4.368 -0.048,-0.768 -0.048,-1.44 0,-0.672 0.048,-1.44 0.096,-2.256 0.672,-4.32 0.624,-2.064 1.824,-3.696 1.248,-1.632 3.168,-2.544 1.92,-0.96 4.56,-0.96 2.832,0 4.704,1.008 1.872,1.008 3.072,2.496 v -11.04 q 0,-0.48 0.288,-0.768 0.336,-0.336 0.816,-0.336 h 2.304 q 0.48,0 0.768,0.336 0.336,0.288 0.336,0.768 v 31.872 q 0,0.48 -0.336,0.816 -0.288,0.288 -0.768,0.288 h -2.16 q -0.528,0 -0.816,-0.288 -0.288,-0.336 -0.288,-0.816 v -2.016 q -1.2,1.536 -3.12,2.592 -1.92,1.008 -4.8,1.008 z m 1.008,-3.888 q 2.4,0 3.84,-1.104 1.44,-1.104 2.16,-2.784 0.72,-1.728 0.768,-3.504 0.048,-0.768 0.048,-1.824 0,-1.104 -0.048,-1.872 -0.048,-1.68 -0.816,-3.312 -0.72,-1.632 -2.208,-2.688 -1.44,-1.056 -3.744,-1.056 -2.448,0 -3.888,1.104 -1.44,1.056 -2.064,2.832 -0.624,1.728 -0.72,3.744 -0.048,1.392 0,2.784 0.096,2.016 0.72,3.792 0.624,1.728 2.064,2.832 1.44,1.056 3.888,1.056 z m 28.65597,3.888 q -3.648,0 -6.096,-1.392 -2.448,-1.392 -3.744,-3.84 -1.296,-2.496 -1.44,-5.664 -0.048,-0.816 -0.048,-2.064 0,-1.296 0.048,-2.064 0.144,-3.216 1.44,-5.664 1.344,-2.448 3.792,-3.84 2.448,-1.392 6.048,-1.392 3.6,0 6.048,1.392 2.448,1.392 3.744,3.84 1.344,2.448 1.488,5.664 0.048,0.768 0.048,2.064 0,1.248 -0.048,2.064 -0.144,3.168 -1.44,5.664 -1.296,2.448 -3.744,3.84 -2.448,1.392 -6.096,1.392 z m 0,-3.696 q 2.976,0 4.752,-1.872 1.776,-1.92 1.92,-5.568 0.048,-0.72 0.048,-1.824 0,-1.104 -0.048,-1.824 -0.144,-3.648 -1.92,-5.52 -1.776,-1.92 -4.752,-1.92 -2.976,0 -4.8,1.92 -1.776,1.872 -1.872,5.52 -0.048,0.72 -0.048,1.824 0,1.104 0.048,1.824 0.096,3.648 1.872,5.568 1.824,1.872 4.8,1.872 z m 18.43197,3.216 q -0.48,0 -0.816,-0.288 -0.288,-0.336 -0.288,-0.816 v -22.752 q 0,-0.48 0.288,-0.768 0.336,-0.336 0.816,-0.336 h 2.256 q 0.48,0 0.768,0.336 0.336,0.288 0.336,0.768 v 2.112 q 1.248,-1.632 3.12,-2.64 1.92,-1.056 4.896,-1.056 3.12,0 5.28,1.392 2.208,1.344 3.312,3.792 1.104,2.4 1.104,5.616 v 13.536 q 0,0.48 -0.288,0.816 -0.288,0.288 -0.768,0.288 h -2.4 q -0.48,0 -0.816,-0.288 -0.288,-0.336 -0.288,-0.816 V 232.35 q 0,-3.36 -1.632,-5.232 -1.632,-1.92 -4.8,-1.92 -2.976,0 -4.8,1.92 -1.776,1.872 -1.776,5.232 v 13.296 q 0,0.48 -0.336,0.816 -0.288,0.288 -0.768,0.288 z m 52.56008,0.48 q -4.224,0 -7.2,-1.584 -2.928,-1.584 -4.512,-4.464 -1.536,-2.88 -1.728,-6.768 -0.048,-2.112 -0.048,-4.464 0,-2.4 0.048,-4.56 0.192,-3.888 1.728,-6.72 1.584,-2.832 4.56,-4.416 2.976,-1.584 7.152,-1.584 3.408,0 5.904,0.96 2.496,0.96 4.08,2.448 1.632,1.44 2.4,3.024 0.816,1.584 0.864,2.784 0.048,0.432 -0.24,0.72 -0.288,0.24 -0.768,0.24 h -2.832 q -0.48,0 -0.72,-0.192 -0.192,-0.192 -0.384,-0.672 -0.432,-1.248 -1.44,-2.448 -0.96,-1.2 -2.64,-1.968 -1.632,-0.816 -4.224,-0.816 -3.792,0 -6.144,2.064 -2.304,2.064 -2.496,6.816 -0.144,4.272 0,8.544 0.192,4.8 2.544,6.912 2.352,2.064 6.144,2.064 2.544,0 4.512,-0.912 2.016,-0.96 3.168,-2.928 1.152,-1.968 1.152,-4.992 v -2.016 h -7.2 q -0.48,0 -0.816,-0.288 -0.288,-0.336 -0.288,-0.864 v -1.536 q 0,-0.528 0.288,-0.816 0.336,-0.336 0.816,-0.336 h 10.848 q 0.528,0 0.816,0.336 0.288,0.288 0.288,0.816 v 4.608 q 0,3.936 -1.632,6.864 -1.584,2.928 -4.656,4.56 -3.072,1.584 -7.344,1.584 z m 20.97599,-0.48 q -0.48,0 -0.816,-0.288 -0.288,-0.336 -0.288,-0.816 v -22.704 q 0,-0.48 0.288,-0.816 0.336,-0.336 0.816,-0.336 h 2.208 q 0.48,0 0.816,0.336 0.336,0.336 0.336,0.816 v 2.112 q 0.96,-1.632 2.64,-2.448 1.68,-0.816 4.032,-0.816 h 1.92 q 0.48,0 0.768,0.336 0.288,0.288 0.288,0.768 v 1.968 q 0,0.48 -0.288,0.768 -0.288,0.288 -0.768,0.288 h -2.88 q -2.592,0 -4.08,1.536 -1.488,1.488 -1.488,4.08 v 14.112 q 0,0.48 -0.336,0.816 -0.336,0.288 -0.816,0.288 z m 23.70302,0.48 q -2.4,0 -4.368,-0.96 -1.968,-0.96 -3.168,-2.592 -1.2,-1.632 -1.2,-3.696 0,-3.312 2.688,-5.28 2.688,-1.968 7.008,-2.592 l 7.152,-1.008 v -1.392 q 0,-2.304 -1.344,-3.6 -1.296,-1.296 -4.272,-1.296 -2.16,0 -3.504,0.864 -1.296,0.864 -1.824,2.208 -0.288,0.72 -1.008,0.72 h -2.16 q -0.528,0 -0.816,-0.288 -0.24,-0.336 -0.24,-0.768 0,-0.72 0.528,-1.776 0.576,-1.056 1.728,-2.064 1.152,-1.008 2.928,-1.68 1.824,-0.72 4.416,-0.72 2.88,0 4.848,0.768 1.968,0.72 3.072,1.968 1.152,1.248 1.632,2.832 0.528,1.584 0.528,3.216 v 15.552 q 0,0.48 -0.336,0.816 -0.288,0.288 -0.768,0.288 h -2.208 q -0.528,0 -0.816,-0.288 -0.288,-0.336 -0.288,-0.816 v -2.064 q -0.624,0.864 -1.68,1.728 -1.056,0.816 -2.64,1.392 -1.584,0.528 -3.888,0.528 z m 1.008,-3.6 q 1.968,0 3.6,-0.816 1.632,-0.864 2.544,-2.64 0.96,-1.776 0.96,-4.464 v -1.344 l -5.568,0.816 q -3.408,0.48 -5.136,1.632 -1.728,1.104 -1.728,2.832 0,1.344 0.768,2.256 0.816,0.864 2.016,1.296 1.248,0.432 2.544,0.432 z m 19.68,12.24 q -0.48,0 -0.816,-0.336 -0.288,-0.288 -0.288,-0.768 v -31.872 q 0,-0.48 0.288,-0.768 0.336,-0.336 0.816,-0.336 h 2.208 q 0.48,0 0.768,0.336 0.336,0.288 0.336,0.768 v 2.112 q 1.152,-1.584 3.072,-2.64 1.92,-1.056 4.8,-1.056 2.688,0 4.56,0.912 1.92,0.912 3.12,2.496 1.248,1.584 1.872,3.6 0.624,2.016 0.672,4.32 0.048,0.768 0.048,1.632 0,0.864 -0.048,1.632 -0.048,2.256 -0.672,4.32 -0.624,2.016 -1.872,3.6 -1.2,1.536 -3.12,2.496 -1.872,0.912 -4.56,0.912 -2.784,0 -4.704,-1.008 -1.872,-1.056 -3.072,-2.592 v 11.136 q 0,0.48 -0.288,0.768 -0.288,0.336 -0.816,0.336 z m 10.176,-12.528 q 2.496,0 3.888,-1.056 1.44,-1.104 2.064,-2.832 0.624,-1.776 0.72,-3.792 0.048,-1.392 0,-2.784 -0.096,-2.016 -0.72,-3.744 -0.624,-1.776 -2.064,-2.832 -1.392,-1.104 -3.888,-1.104 -2.352,0 -3.84,1.104 -1.44,1.104 -2.16,2.832 -0.672,1.68 -0.768,3.456 -0.048,0.768 -0.048,1.824 0,1.056 0.048,1.872 0.048,1.68 0.768,3.312 0.768,1.632 2.256,2.688 1.488,1.056 3.744,1.056 z m 18.43203,3.408 q -0.48,0 -0.816,-0.288 -0.288,-0.336 -0.288,-0.816 v -31.872 q 0,-0.48 0.288,-0.768 0.336,-0.336 0.816,-0.336 h 2.4 q 0.528,0 0.816,0.336 0.288,0.288 0.288,0.768 v 11.184 q 1.296,-1.632 3.168,-2.64 1.872,-1.008 4.752,-1.008 3.12,0 5.28,1.392 2.208,1.344 3.312,3.792 1.152,2.4 1.152,5.616 v 13.536 q 0,0.48 -0.288,0.816 -0.288,0.288 -0.816,0.288 h -2.4 q -0.48,0 -0.816,-0.288 -0.288,-0.336 -0.288,-0.816 V 232.35 q 0,-3.36 -1.632,-5.232 -1.632,-1.92 -4.8,-1.92 -2.976,0 -4.8,1.92 -1.824,1.872 -1.824,5.232 v 13.296 q 0,0.48 -0.288,0.816 -0.288,0.288 -0.816,0.288 z m 50.35197,3.12 q -0.624,0 -1.008,-0.432 -0.384,-0.384 -0.624,-0.672 l -1.968,-2.688 q -2.592,1.152 -6,1.152 -4.128,0 -7.056,-1.392 -2.88,-1.44 -4.512,-4.368 -1.584,-2.976 -1.728,-7.44 -0.048,-2.112 -0.048,-4.032 0,-1.968 0.048,-4.08 0.144,-4.416 1.824,-7.344 1.68,-2.976 4.608,-4.416 2.976,-1.488 6.864,-1.488 3.936,0 6.864,1.488 2.976,1.44 4.656,4.416 1.68,2.928 1.776,7.344 0.096,2.112 0.096,4.08 0,1.92 -0.096,4.032 -0.24,6.624 -3.456,9.84 l 3.168,4.512 q 0.048,0.048 0.096,0.144 0.048,0.144 0.048,0.384 0.048,0.384 -0.24,0.672 -0.288,0.288 -0.72,0.288 z m -9.6,-6.72 q 3.648,0 6,-2.208 2.352,-2.208 2.544,-7.152 0.096,-2.16 0.096,-3.84 0,-1.728 -0.096,-3.84 -0.096,-3.312 -1.248,-5.376 -1.104,-2.064 -2.976,-3.024 -1.872,-0.96 -4.32,-0.96 -2.352,0 -4.272,0.96 -1.872,0.96 -2.976,3.024 -1.104,2.064 -1.248,5.376 -0.048,2.112 -0.048,3.84 0,1.68 0.048,3.84 0.192,4.944 2.544,7.152 2.352,2.208 5.952,2.208 z m 21.552,3.6 q -0.528,0 -0.816,-0.288 -0.288,-0.336 -0.288,-0.816 v -31.392 q 0,-0.48 0.288,-0.768 0.288,-0.336 0.816,-0.336 h 2.544 q 0.48,0 0.768,0.336 0.288,0.288 0.288,0.768 v 28.32 h 15.984 q 0.528,0 0.816,0.336 0.288,0.288 0.288,0.816 v 1.92 q 0,0.48 -0.288,0.816 -0.288,0.288 -0.816,0.288 z"
     id="text3"
     class="cls-1"
     aria-label="London GraphQL" />
  <g
     id="g18"
     transform="translate(-11.405009)">
    <g
       id="g16">
      <rect
         class="cls-2"
         x="200.19"
         y="87.599998"
         width="127.26"
         height="6.5999999"
         transform="rotate(-60,263.81168,90.904769)"
         id="rect3" />
      <rect
         class="cls-2"
         x="227.84"
         y="135.55"
         width="127.26"
         height="6.5999999"
         id="rect4" />
      <rect
         class="cls-2"
         x="260.53"
         y="118.03"
         width="6.5999999"
         height="73.5"
         transform="rotate(-60,263.82619,154.77963)"
         id="rect5" />
      <rect
         class="cls-2"
         x="315.82999"
         y="22.24"
         width="6.5999999"
         height="73.5"
         transform="rotate(-60,319.12619,58.997224)"
         id="rect6" />
      <rect
         class="cls-2"
         x="227.10001"
         y="55.669998"
         width="73.5"
         height="6.5999999"
         transform="rotate(-30,263.86133,58.961431)"
         id="rect7" />
      <rect
         class="cls-2"
         x="315.88"
         y="27.27"
         width="6.5999999"
         height="127.26"
         transform="rotate(-30,319.18218,90.904608)"
         id="rect8" />
      <rect
         class="cls-2"
         x="232.88"
         y="70.110001"
         width="6.5999999"
         height="73.5"
         id="rect9" />
      <rect
         class="cls-2"
         x="343.5"
         y="70.110001"
         width="6.5999999"
         height="73.5"
         id="rect10" />
      <rect
         class="cls-2"
         x="287.16"
         y="151.86"
         width="63.93"
         height="5.7600002"
         transform="rotate(-30,319.13438,154.7518)"
         id="rect11" />
      <path
         class="cls-2"
         d="m 358.83,145.76 c -3.81,6.64 -12.32,8.9 -18.95,5.09 -6.63,-3.81 -8.9,-12.32 -5.09,-18.95 3.81,-6.64 12.32,-8.9 18.95,-5.09 6.68,3.85 8.94,12.32 5.09,18.95"
         id="path11" />
      <path
         class="cls-2"
         d="m 248.14,81.84 c -3.81,6.64 -12.32,8.9 -18.95,5.09 -6.64,-3.81 -8.9,-12.32 -5.09,-18.95 3.81,-6.64 12.32,-8.9 18.95,-5.09 6.64,3.85 8.9,12.32 5.09,18.95"
         id="path12" />
      <path
         class="cls-2"
         d="m 224.14,145.76 c -3.81,-6.64 -1.55,-15.1 5.09,-18.95 6.64,-3.81 15.1,-1.55 18.95,5.09 3.81,6.64 1.55,15.1 -5.09,18.95 -6.68,3.81 -15.14,1.55 -18.95,-5.09"
         id="path13" />
      <path
         class="cls-2"
         d="m 334.84,81.84 c -3.81,-6.64 -1.55,-15.1 5.09,-18.95 6.64,-3.81 15.1,-1.55 18.95,5.09 3.81,6.64 1.55,15.1 -5.09,18.95 -6.64,3.81 -15.14,1.55 -18.95,-5.09"
         id="path14" />
      <path
         class="cls-2"
         d="m 291.49,184.66 c -7.67,0 -13.87,-6.2 -13.87,-13.87 0,-7.67 6.2,-13.87 13.87,-13.87 7.67,0 13.87,6.2 13.87,13.87 0,7.67 -6.2,13.87 -13.87,13.87"
         id="path15" />
      <path
         class="cls-2"
         d="m 291.49,56.8 c -7.67,0 -13.87,-6.2 -13.87,-13.87 0,-7.67 6.2,-13.87 13.87,-13.87 7.67,0 13.87,6.2 13.87,13.87 0,7.67 -6.2,13.87 -13.87,13.87"
         id="path16" />
    </g>
    <path
       class="cls-2"
       d="m 305.45,93.78 v -4.81 h 0.99 v -6.15 h -2.09 V 78.33 L 298.02,74.04 293,59.18 h -2.68 l -5.02,14.86 -6.33,4.29 v 4.49 h -2.09 v 6.15 h 0.99 v 4.81 c -3.42,0.5 -6.07,3.46 -6.07,7.01 v 25.53 c 0,3.2 2.15,5.92 5.08,6.8 h 29.55 c 2.93,-0.87 5.08,-3.59 5.08,-6.8 v -25.53 c 0,-3.55 -2.65,-6.51 -6.07,-7.01 z m -13.79,5.59 c 7.83,0 14.19,6.35 14.19,14.19 0,7.84 -6.35,14.19 -14.19,14.19 -7.84,0 -14.19,-6.35 -14.19,-14.19 0,-7.84 6.35,-14.19 14.19,-14.19 z"
       id="path17" />
    <path
       class="cls-2"
       d="m 291.96,116.7 c 0.32,0 0.62,-0.09 0.88,-0.28 0.41,-0.29 0.65,-0.76 0.65,-1.3 v -9.93 h -2.13 v 9.14 l -9.38,-3.29 -0.7,2.01 10.13,3.55 c 0.19,0.07 0.38,0.1 0.56,0.1 z"
       id="path18" />
  </g>
</svg>
