<?xml version="1.0" encoding="UTF-8"?>
<svg id="Layer_1" data-name="Layer 1" xmlns="http://www.w3.org/2000/svg" viewBox="0 0 560.17 330.15">
  <defs>
    <style>
      .cls-1 {
        fill: #fff;
        font-family: Roboto-Bold, Roboto;
        font-size: 48px;
      }

      .cls-2 {
        fill: #c94a95;
      }

      .cls-3 {
        fill: #1a2735;
      }

      .cls-4 {
        letter-spacing: -.01em;
      }
    </style>
  </defs>
  <rect class="cls-3" width="560.17" height="330.15"/>
  <text class="cls-1" transform="translate(107.19 246.75)"><tspan x="0" y="0">G</tspan><tspan class="cls-4" x="32.7" y="0">r</tspan><tspan x="49.5" y="0">aphQL London</tspan></text>
  <g>
    <rect class="cls-2" x="200.19" y="87.6" width="127.26" height="6.6" transform="translate(53.18 273.92) rotate(-60)"/>
    <rect class="cls-2" x="227.84" y="135.55" width="127.26" height="6.6"/>
    <rect class="cls-2" x="260.53" y="118.03" width="6.6" height="73.5" transform="translate(-2.13 305.87) rotate(-60)"/>
    <rect class="cls-2" x="315.83" y="22.24" width="6.6" height="73.5" transform="translate(108.47 305.87) rotate(-60)"/>
    <rect class="cls-2" x="227.1" y="55.67" width="73.5" height="6.6" transform="translate(5.87 139.83) rotate(-30)"/>
    <rect class="cls-2" x="315.88" y="27.27" width="6.6" height="127.26" transform="translate(-2.69 171.77) rotate(-30)"/>
    <rect class="cls-2" x="232.88" y="70.11" width="6.6" height="73.5"/>
    <rect class="cls-2" x="343.5" y="70.11" width="6.6" height="73.5"/>
    <rect class="cls-2" x="287.16" y="151.86" width="63.93" height="5.76" transform="translate(-34.62 180.3) rotate(-30)"/>
    <path class="cls-2" d="M358.83,145.76c-3.81,6.64-12.32,8.9-18.95,5.09s-8.9-12.32-5.09-18.95c3.81-6.64,12.32-8.9,18.95-5.09,6.68,3.85,8.94,12.32,5.09,18.95"/>
    <path class="cls-2" d="M248.14,81.84c-3.81,6.64-12.32,8.9-18.95,5.09-6.64-3.81-8.9-12.32-5.09-18.95,3.81-6.64,12.32-8.9,18.95-5.09,6.64,3.85,8.9,12.32,5.09,18.95"/>
    <path class="cls-2" d="M224.14,145.76c-3.81-6.64-1.55-15.1,5.09-18.95,6.64-3.81,15.1-1.55,18.95,5.09,3.81,6.64,1.55,15.1-5.09,18.95-6.68,3.81-15.14,1.55-18.95-5.09"/>
    <path class="cls-2" d="M334.84,81.84c-3.81-6.64-1.55-15.1,5.09-18.95,6.64-3.81,15.1-1.55,18.95,5.09,3.81,6.64,1.55,15.1-5.09,18.95-6.64,3.81-15.14,1.55-18.95-5.09"/>
    <path class="cls-2" d="M291.49,184.66c-7.67,0-13.87-6.2-13.87-13.87s6.2-13.87,13.87-13.87,13.87,6.2,13.87,13.87-6.2,13.87-13.87,13.87"/>
    <path class="cls-2" d="M291.49,56.8c-7.67,0-13.87-6.2-13.87-13.87s6.2-13.87,13.87-13.87,13.87,6.2,13.87,13.87-6.2,13.87-13.87,13.87"/>
  </g>
  <path class="cls-2" d="M305.45,93.78v-4.81h.99v-6.15h-2.09v-4.49l-6.33-4.29-5.02-14.86h-2.68l-5.02,14.86-6.33,4.29v4.49h-2.09v6.15h.99v4.81c-3.42,.5-6.07,3.46-6.07,7.01v25.53c0,3.2,2.15,5.92,5.08,6.8h29.55c2.93-.87,5.08-3.59,5.08-6.8v-25.53c0-3.55-2.65-6.51-6.07-7.01Zm-13.79,5.59c7.83,0,14.19,6.35,14.19,14.19s-6.35,14.19-14.19,14.19-14.19-6.35-14.19-14.19,6.35-14.19,14.19-14.19Z"/>
  <path class="cls-2" d="M291.96,116.7c.32,0,.62-.09,.88-.28,.41-.29,.65-.76,.65-1.3v-9.93h-2.13v9.14l-9.38-3.29-.7,2.01,10.13,3.55c.19,.07,.38,.1,.56,.1Z"/>
</svg>