<?xml version="1.0" encoding="UTF-8"?>
<svg id="Layer_1" data-name="Layer 1" xmlns="http://www.w3.org/2000/svg" viewBox="0 0 181.71 204.17">
  <defs>
    <style>
      .cls-1 {
        fill: #e535ab;
      }
    </style>
  </defs>
  <g>
    <rect class="cls-1" x="-28.95" y="76.81" width="166.99" height="8.65" transform="translate(-42.99 87.8) rotate(-60)"/>
    <rect class="cls-1" x="7.33" y="139.73" width="166.99" height="8.65"/>
    <rect class="cls-1" x="50.24" y="116.73" width="8.65" height="96.45" transform="translate(-115.57 129.73) rotate(-60)"/>
    <rect class="cls-1" x="122.8" y="-8.96" width="8.65" height="96.45" transform="translate(29.56 129.72) rotate(-60)"/>
    <rect class="cls-1" x="6.36" y="34.9" width="96.45" height="8.65" transform="translate(-12.3 32.55) rotate(-30)"/>
    <rect class="cls-1" x="122.86" y="-2.36" width="8.65" height="166.99" transform="translate(-23.53 74.46) rotate(-30)"/>
    <rect class="cls-1" x="13.95" y="53.86" width="8.65" height="96.45"/>
    <rect class="cls-1" x="159.1" y="53.86" width="8.65" height="96.45"/>
    <rect class="cls-1" x="85.18" y="161.13" width="83.89" height="7.56" transform="translate(-65.42 85.66) rotate(-30)"/>
    <path class="cls-1" d="M179.23,153.13c-5.01,8.71-16.16,11.68-24.87,6.67s-11.68-16.16-6.67-24.87c5.01-8.71,16.16-11.68,24.87-6.67,8.76,5.06,11.73,16.16,6.67,24.87"/>
    <path class="cls-1" d="M33.97,69.24c-5.01,8.71-16.16,11.68-24.87,6.67C.4,70.91-2.58,59.75,2.43,51.04c5.01-8.71,16.16-11.68,24.87-6.67,8.71,5.06,11.68,16.16,6.67,24.87"/>
    <path class="cls-1" d="M2.48,153.13c-5.01-8.71-2.03-19.81,6.67-24.87,8.71-5.01,19.81-2.03,24.87,6.67,5.01,8.71,2.03,19.81-6.67,24.87-8.76,5.01-19.86,2.03-24.87-6.67"/>
    <path class="cls-1" d="M147.74,69.24c-5.01-8.71-2.03-19.81,6.67-24.87,8.71-5.01,19.81-2.03,24.87,6.67,5.01,8.71,2.03,19.81-6.67,24.87-8.71,5.01-19.86,2.03-24.87-6.67"/>
    <path class="cls-1" d="M90.85,204.17c-10.06,0-18.2-8.13-18.2-18.2s8.13-18.2,18.2-18.2,18.2,8.13,18.2,18.2-8.13,18.2-18.2,18.2"/>
    <path class="cls-1" d="M90.85,36.39c-10.06,0-18.2-8.13-18.2-18.2S80.79,0,90.85,0s18.2,8.13,18.2,18.2-8.13,18.2-18.2,18.2"/>
  </g>
  <path class="cls-1" d="M109.17,84.91v-6.31h1.29v-8.07h-2.74v-5.89l-8.31-5.63-6.59-19.5h-3.52l-6.59,19.5-8.31,5.63v5.89h-2.74v8.07h1.29v6.31c-4.49,.66-7.96,4.54-7.96,9.2v33.5c0,4.2,2.83,7.77,6.67,8.92h38.78c3.84-1.14,6.67-4.72,6.67-8.92v-33.5c0-4.66-3.48-8.54-7.96-9.2Zm-18.1,7.34c10.28,0,18.61,8.33,18.61,18.61s-8.33,18.61-18.61,18.61-18.61-8.33-18.61-18.61,8.33-18.61,18.61-18.61Z"/>
  <path class="cls-1" d="M91.47,114.99c.41,0,.81-.12,1.15-.36,.54-.38,.85-1,.85-1.71v-13.03h-2.79v11.99l-12.31-4.31-.92,2.63,13.29,4.66c.25,.09,.49,.13,.74,.13Z"/>
</svg>