<?xml version="1.0" encoding="UTF-8"?>
<svg id="Layer_1" data-name="Layer 1" xmlns="http://www.w3.org/2000/svg" viewBox="0 0 560.17 330.15">
  <defs>
    <style>
      .cls-1 {
        font-size: 18px;
      }

      .cls-1, .cls-2 {
        font-family: Roboto-Bold, Roboto;
      }

      .cls-1, .cls-2, .cls-3 {
        fill: #fff;
      }

      .cls-2 {
        font-size: 48px;
      }

      .cls-4 {
        fill: #e7333d;
      }

      .cls-5 {
        fill: #c94a95;
      }

      .cls-6 {
        fill: #1a2735;
      }

      .cls-7 {
        letter-spacing: -.01em;
      }
    </style>
  </defs>
  <rect class="cls-6" width="560.17" height="330.15"/>
  <text class="cls-1" transform="translate(72.51 273.67)"><tspan x="0" y="0">September 7th, Neo4j - London, 5:30pm - 7:30pm</tspan></text>
  <g>
    <rect class="cls-4" x="72.94" y="204.38" width="57.69" height="22.37"/>
    <g>
      <polygon class="cls-3" points="83.85 208.59 81.36 208.59 81.36 222.54 91.38 222.54 91.38 220.26 83.85 220.26 83.85 208.59"/>
      <rect class="cls-3" x="93.47" y="208.59" width="2.5" height="13.94"/>
      <polygon class="cls-3" points="104.23 218.77 100.76 208.59 98.04 208.59 103.11 222.54 105.36 222.54 110.42 208.59 107.7 208.59 104.23 218.77"/>
      <polygon class="cls-3" points="122.22 210.87 122.22 208.59 112.2 208.59 112.2 222.54 122.22 222.54 122.22 220.26 114.69 220.26 114.69 216.75 121.09 216.75 121.09 214.47 114.69 214.47 114.69 210.87 122.22 210.87"/>
    </g>
  </g>
  <text class="cls-2" transform="translate(69.75 105)"><tspan x="0" y="0">G</tspan><tspan class="cls-7" x="32.7" y="0">r</tspan><tspan x="49.5" y="0">aphQL </tspan><tspan x="0" y="57.6">London</tspan></text>
  <g>
    <rect class="cls-5" x="321.6" y="124.29" width="127.26" height="6.6" transform="translate(82.12 397.41) rotate(-60)"/>
    <rect class="cls-5" x="349.25" y="172.24" width="127.26" height="6.6"/>
    <rect class="cls-5" x="381.95" y="154.71" width="6.6" height="73.5" transform="translate(26.81 429.36) rotate(-60)"/>
    <rect class="cls-5" x="437.24" y="58.92" width="6.6" height="73.5" transform="translate(137.41 429.35) rotate(-60)"/>
    <rect class="cls-5" x="348.51" y="92.35" width="73.5" height="6.6" transform="translate(3.79 205.45) rotate(-30)"/>
    <rect class="cls-5" x="437.29" y="63.96" width="6.6" height="127.26" transform="translate(-4.76 237.39) rotate(-30)"/>
    <rect class="cls-5" x="354.3" y="106.8" width="6.6" height="73.5"/>
    <rect class="cls-5" x="464.91" y="106.8" width="6.6" height="73.5"/>
    <rect class="cls-5" x="408.58" y="188.54" width="63.93" height="5.76" transform="translate(-36.69 245.92) rotate(-30)"/>
    <path class="cls-5" d="M480.25,182.45c-3.81,6.64-12.32,8.9-18.95,5.09s-8.9-12.32-5.09-18.95c3.81-6.64,12.32-8.9,18.95-5.09,6.68,3.85,8.94,12.32,5.09,18.95"/>
    <path class="cls-5" d="M369.55,118.52c-3.81,6.64-12.32,8.9-18.95,5.09-6.64-3.81-8.9-12.32-5.09-18.95,3.81-6.64,12.32-8.9,18.95-5.09,6.64,3.85,8.9,12.32,5.09,18.95"/>
    <path class="cls-5" d="M345.55,182.45c-3.81-6.64-1.55-15.1,5.09-18.95,6.64-3.81,15.1-1.55,18.95,5.09,3.81,6.64,1.55,15.1-5.09,18.95-6.68,3.81-15.14,1.55-18.95-5.09"/>
    <path class="cls-5" d="M456.25,118.52c-3.81-6.64-1.55-15.1,5.09-18.95,6.64-3.81,15.1-1.55,18.95,5.09,3.81,6.64,1.55,15.1-5.09,18.95-6.64,3.81-15.14,1.55-18.95-5.09"/>
    <path class="cls-5" d="M412.9,221.34c-7.67,0-13.87-6.2-13.87-13.87s6.2-13.87,13.87-13.87,13.87,6.2,13.87,13.87-6.2,13.87-13.87,13.87"/>
    <path class="cls-5" d="M412.9,93.49c-7.67,0-13.87-6.2-13.87-13.87s6.2-13.87,13.87-13.87,13.87,6.2,13.87,13.87-6.2,13.87-13.87,13.87"/>
  </g>
  <path class="cls-5" d="M426.86,130.46v-4.81h.99v-6.15h-2.09v-4.49l-6.33-4.29-5.02-14.86h-2.68l-5.02,14.86-6.33,4.29v4.49h-2.09v6.15h.99v4.81c-3.42,.5-6.07,3.46-6.07,7.01v25.53c0,3.2,2.15,5.92,5.08,6.8h29.55c2.93-.87,5.08-3.59,5.08-6.8v-25.53c0-3.55-2.65-6.51-6.07-7.01Zm-13.79,5.59c7.83,0,14.19,6.35,14.19,14.19s-6.35,14.19-14.19,14.19-14.19-6.35-14.19-14.19,6.35-14.19,14.19-14.19Z"/>
  <path class="cls-5" d="M413.37,153.39c.32,0,.62-.09,.88-.28,.41-.29,.65-.76,.65-1.3v-9.93h-2.13v9.14l-9.38-3.29-.7,2.01,10.13,3.55c.19,.07,.38,.1,.56,.1Z"/>
</svg>